<svg width="50" height="54" viewBox="0 0 50 54" fill="none" xmlns="http://www.w3.org/2000/svg">
<path d="M41.042 36.6165C46.2205 35.1047 50 30.3627 50 24.7468C50 17.9132 44.4036 12.3734 37.5 12.3734C37.5 5.53975 31.9036 0 25 0C18.0964 0 12.5 5.53975 12.5 12.3734C5.59644 12.3734 0 17.9132 0 24.7468C0 30.3627 3.77951 35.1047 8.958 36.6165L11.413 53.125H38.587L41.042 36.6165Z" fill="#FF8193"/>
<path fill-rule="evenodd" clip-rule="evenodd" d="M25.5942 52.6755L25.5805 52.678L25.4917 52.7218L25.4667 52.7268L25.4492 52.7218L25.3605 52.678C25.3472 52.6739 25.3372 52.676 25.3305 52.6843L25.3255 52.6968L25.3042 53.2318L25.3105 53.2568L25.323 53.273L25.453 53.3655L25.4717 53.3705L25.4867 53.3655L25.6167 53.273L25.6317 53.253L25.6367 53.2318L25.6155 52.698C25.6122 52.6847 25.6051 52.6772 25.5942 52.6755ZM25.9255 52.5343L25.9092 52.5368L25.678 52.653L25.6655 52.6655L25.6617 52.6793L25.6842 53.2168L25.6905 53.2318L25.7005 53.2405L25.9517 53.3568C25.9676 53.361 25.9797 53.3576 25.988 53.3468L25.993 53.3293L25.9505 52.5618C25.9463 52.5468 25.938 52.5376 25.9255 52.5343ZM25.0317 52.5368C25.0262 52.5335 25.0197 52.5324 25.0134 52.5338C25.0071 52.5352 25.0016 52.5389 24.998 52.5443L24.9905 52.5618L24.948 53.3293C24.9488 53.3443 24.9559 53.3543 24.9692 53.3593L24.988 53.3568L25.2392 53.2405L25.2517 53.2305L25.2567 53.2168L25.278 52.6793L25.2742 52.6643L25.2617 52.6518L25.0317 52.5368Z" fill="#0F1108"/>
<path fill-rule="evenodd" clip-rule="evenodd" d="M24.853 41.2555L31.4818 47.8843C31.8335 48.236 32.3106 48.4336 32.808 48.4336C33.3055 48.4336 33.7825 48.236 34.1343 47.8843C34.486 47.5325 34.6836 47.0555 34.6836 46.558C34.6836 46.0606 34.486 45.5835 34.1343 45.2318L27.503 38.603L34.133 31.9743C34.3071 31.8001 34.4452 31.5934 34.5394 31.3659C34.6335 31.1383 34.682 30.8945 34.6819 30.6482C34.6819 30.402 34.6333 30.1581 34.539 29.9307C34.4447 29.7032 34.3066 29.4965 34.1324 29.3224C33.9582 29.1483 33.7515 29.0103 33.524 28.9161C33.2964 28.8219 33.0526 28.7735 32.8063 28.7735C32.5601 28.7736 32.3163 28.8221 32.0888 28.9164C31.8613 29.0107 31.6546 29.1489 31.4805 29.323L24.853 35.9518L18.2243 29.323C18.0514 29.1439 17.8446 29.0009 17.6159 28.9026C17.3871 28.8042 17.1411 28.7524 16.8922 28.7501C16.6432 28.7478 16.3963 28.7951 16.1658 28.8893C15.9353 28.9835 15.7259 29.1226 15.5498 29.2985C15.3737 29.4745 15.2343 29.6838 15.14 29.9142C15.0456 30.1446 14.998 30.3914 15.0001 30.6404C15.0021 30.8894 15.0537 31.1354 15.1519 31.3642C15.25 31.593 15.3928 31.8 15.5718 31.973L22.203 38.603L15.573 45.233C15.394 45.4061 15.2513 45.6131 15.1531 45.8419C15.055 46.0707 15.0034 46.3167 15.0013 46.5657C14.9993 46.8146 15.0468 47.0615 15.1412 47.2919C15.2356 47.5223 15.3749 47.7316 15.551 47.9075C15.7272 48.0835 15.9366 48.2226 16.1671 48.3168C16.3975 48.411 16.6445 48.4583 16.8934 48.456C17.1424 48.4537 17.3884 48.4019 17.6171 48.3035C17.8458 48.2051 18.0526 48.0622 18.2255 47.883L24.853 41.2555Z" fill="#0F1108"/>
</svg>
