<svg width="73" height="72" viewBox="0 0 73 72" fill="none" xmlns="http://www.w3.org/2000/svg">
<path d="M23.9 6H49.1C58.7 6 66.5 13.8 66.5 23.4V48.6C66.5 53.2148 64.6668 57.6405 61.4037 60.9037C58.1405 64.1668 53.7148 66 49.1 66H23.9C14.3 66 6.5 58.2 6.5 48.6V23.4C6.5 18.7852 8.33321 14.3595 11.5963 11.0963C14.8595 7.83321 19.2852 6 23.9 6ZM23.3 12C20.4357 12 17.6886 13.1379 15.6632 15.1632C13.6379 17.1886 12.5 19.9357 12.5 22.8V49.2C12.5 55.17 17.33 60 23.3 60H49.7C52.5643 60 55.3114 58.8621 57.3368 56.8368C59.3621 54.8114 60.5 52.0643 60.5 49.2V22.8C60.5 16.83 55.67 12 49.7 12H23.3ZM52.25 16.5C53.2446 16.5 54.1984 16.8951 54.9017 17.5983C55.6049 18.3016 56 19.2554 56 20.25C56 21.2446 55.6049 22.1984 54.9017 22.9016C54.1984 23.6049 53.2446 24 52.25 24C51.2554 24 50.3016 23.6049 49.5983 22.9016C48.8951 22.1984 48.5 21.2446 48.5 20.25C48.5 19.2554 48.8951 18.3016 49.5983 17.5983C50.3016 16.8951 51.2554 16.5 52.25 16.5ZM36.5 21C40.4782 21 44.2936 22.5804 47.1066 25.3934C49.9196 28.2064 51.5 32.0218 51.5 36C51.5 39.9782 49.9196 43.7936 47.1066 46.6066C44.2936 49.4196 40.4782 51 36.5 51C32.5218 51 28.7064 49.4196 25.8934 46.6066C23.0804 43.7936 21.5 39.9782 21.5 36C21.5 32.0218 23.0804 28.2064 25.8934 25.3934C28.7064 22.5804 32.5218 21 36.5 21ZM36.5 27C34.1131 27 31.8239 27.9482 30.136 29.636C28.4482 31.3239 27.5 33.6131 27.5 36C27.5 38.3869 28.4482 40.6761 30.136 42.364C31.8239 44.0518 34.1131 45 36.5 45C38.8869 45 41.1761 44.0518 42.864 42.364C44.5518 40.6761 45.5 38.3869 45.5 36C45.5 33.6131 44.5518 31.3239 42.864 29.636C41.1761 27.9482 38.8869 27 36.5 27Z" fill="#0F1108"/>
</svg>
