<svg width="200" height="200" viewBox="0 0 200 200" fill="none" xmlns="http://www.w3.org/2000/svg">
<path d="M158.333 116.667L151.633 163.55C151.05 167.609 150.767 169.642 149.783 171.175C148.919 172.52 147.687 173.587 146.233 174.25C144.592 175 142.542 175 138.458 175H116.667M158.333 116.667H116.667M158.333 116.667C169.192 111.634 175 98.0338 175 86.1172C175 73.3172 166.417 62.3672 154.25 57.8088C153.013 57.3402 151.947 56.5101 151.189 55.4265C150.43 54.3429 150.016 53.0561 150 51.7338C150 41.1922 140.667 32.6422 129.167 32.6422C127.278 32.6422 125.461 32.8616 123.717 33.3005C120.117 34.1922 116.092 33.9922 112.992 32.0922C105.314 27.4153 96.4897 24.9604 87.5 25.0005C62.1833 25.0005 41.6667 43.8088 41.6667 67.0172C41.6667 69.9505 39.75 72.6338 37.025 74.1588C29.8167 78.1672 25 85.4505 25 93.7505C25 104.392 30.9333 114.084 41.6667 116.667M116.667 175V116.667M116.667 175H83.3333M116.667 116.667H83.3333M41.6667 116.667L48.3667 163.55V163.567C48.95 167.617 49.2333 169.65 50.2167 171.175C51.0807 172.52 52.313 173.587 53.7667 174.25C55.4083 175 57.4583 175 61.5417 175H83.3333M41.6667 116.667H83.3333M83.3333 175V116.667" stroke="#FAF3EB" stroke-width="16.6667" stroke-linecap="round" stroke-linejoin="round"/>
</svg>
