<svg width="190" height="190" viewBox="0 0 190 190" fill="none" xmlns="http://www.w3.org/2000/svg">
<path d="M178.772 80.8333C176.222 76.1111 170.556 76.1111 170.556 76.1111H151.667V66.6667C151.667 57.2222 142.222 57.2222 142.222 57.2222H123.333V47.7778C123.333 38.3333 113.889 38.3333 113.889 38.3333H104.444V19.4444C104.444 10 95 10 95 10C78.1886 10 61.7547 14.9852 47.7766 24.3251C33.7984 33.665 22.9037 46.9402 16.4703 62.4719C10.0368 78.0036 8.35355 95.0943 11.6333 111.583C14.913 128.071 23.0085 143.217 34.896 155.104C46.7834 166.992 61.929 175.087 78.4174 178.367C94.9057 181.646 111.996 179.963 127.528 173.53C143.06 167.096 156.335 156.202 165.675 142.223C175.015 128.245 180 111.811 180 95C180 90.2778 179.622 85.5555 178.772 80.8333ZM88.5778 160.733C95 159.411 99.7222 153.744 99.7222 146.944C99.7222 139.106 93.3945 132.778 85.5556 132.778C82.5235 132.773 79.57 133.742 77.1305 135.543C74.691 137.343 72.8944 139.88 72.0057 142.779C71.117 145.678 71.1831 148.785 72.1943 151.644C73.2055 154.502 75.1083 156.96 77.6222 158.656C52.8778 152.044 33.6111 130.983 29.7389 105.578C28.8889 100.761 28.8889 96.0389 28.8889 91.4111C29.55 98.6833 35.5945 104.444 43.0556 104.444C50.8945 104.444 57.2223 98.1167 57.2223 90.2778C57.2223 82.4389 50.8945 76.1111 43.0556 76.1111C36.6334 76.1111 31.25 80.4555 29.55 86.3111C33.3278 57.2222 56.3722 33.6111 85.5556 29.55V43.0555C85.5556 50.8944 91.8834 57.2222 99.7222 57.2222H104.444V61.9444C104.444 69.7833 110.772 76.1111 118.611 76.1111H132.778V80.8333C132.778 88.6722 139.106 95 146.944 95H161.111C161.111 133.533 128.056 164.511 88.5778 160.733ZM71.3889 66.6667C63.55 66.6667 57.2223 60.3389 57.2223 52.5C57.2223 44.6611 63.55 38.3333 71.3889 38.3333C79.2278 38.3333 85.5556 44.6611 85.5556 52.5C85.5556 60.3389 79.2278 66.6667 71.3889 66.6667ZM104.444 99.7222C104.444 107.561 98.1167 113.889 90.2778 113.889C82.4389 113.889 76.1111 107.561 76.1111 99.7222C76.1111 91.8833 82.4389 85.5555 90.2778 85.5555C98.1167 85.5555 104.444 91.8833 104.444 99.7222ZM151.667 118.611C151.667 126.45 145.339 132.778 137.5 132.778C129.661 132.778 123.333 126.45 123.333 118.611C123.333 110.772 129.661 104.444 137.5 104.444C145.339 104.444 151.667 110.772 151.667 118.611Z" fill="#FAF3EB"/>
</svg>
