<svg width="200" height="200" viewBox="0 0 200 200" fill="none" xmlns="http://www.w3.org/2000/svg">
<path d="M29.483 141.667H92.083M154.691 141.667H175.558M104.458 41.6667C109.983 41.6667 115.282 43.8616 119.189 47.7686C123.096 51.6756 125.291 56.9747 125.291 62.5C125.291 68.0253 123.096 73.3244 119.189 77.2314C115.282 81.1384 109.983 83.3333 104.458 83.3333C98.9327 83.3333 93.6336 81.1384 89.7266 77.2314C85.8196 73.3244 83.6247 68.0253 83.6247 62.5C83.6247 56.9747 85.8196 51.6756 89.7266 47.7686C93.6336 43.8616 98.9327 41.6667 104.458 41.6667ZM104.458 41.6667C105.85 37.5 111.958 28.3333 125.291 25" stroke="#FAF3EB" stroke-width="12.5" stroke-linecap="round" stroke-linejoin="round"/>
<path d="M83.4999 66.7921C33.9249 85.5338 13.9332 94.1838 16.9666 100.384C33.4582 108.175 63.7582 106.175 94.7582 105.009C103.292 104.692 111.708 108.925 113.642 117.317C115.008 123.242 115.375 128.417 118.067 131.7C119.608 133.584 122.233 134.217 124.583 133.609C130.917 131.942 133.542 124.867 136.667 112.442C137.275 110.025 138.142 107.417 140.492 106.609C150.992 102.959 183.317 110.992 183.317 96.1921C182.792 80.7755 177.183 71.1671 159.158 56.8755C153.379 52.2623 146.064 50.0164 138.692 50.5921C130.975 51.2088 127.383 52.2171 125.092 54.1921" stroke="#FAF3EB" stroke-width="12.5" stroke-linecap="round" stroke-linejoin="round"/>
<path d="M16.7745 99.942L24.8995 135.817C29.0662 154.6 31.1495 163.992 37.9995 169.5C44.8578 175 54.4745 175 73.7078 175H145.191C159.541 175 166.716 175 171.483 170.684C176.249 166.367 176.949 159.225 178.358 144.934L183.274 96.9503" stroke="#FAF3EB" stroke-width="12.5" stroke-linecap="round" stroke-linejoin="round"/>
</svg>
