<svg width="30" height="34" viewBox="0 0 30 34" fill="none" xmlns="http://www.w3.org/2000/svg">
<path d="M27.6316 23.0679C28.2398 23.0682 28.8246 23.3025 29.2648 23.7222C29.705 24.142 29.9669 24.715 29.9961 25.3225C30.0253 25.93 29.8197 26.5255 29.4218 26.9856C29.024 27.4456 28.4643 27.735 27.8589 27.7937L27.6316 27.8047H2.36842C1.76018 27.8044 1.17538 27.5701 0.735179 27.1504C0.294981 26.7307 0.0331389 26.1577 0.00390906 25.5501C-0.0253208 24.9426 0.180303 24.3471 0.578172 23.8871C0.976041 23.427 1.53565 23.1376 2.14105 23.0789L2.36842 23.0679H27.6316ZM27.6316 12.0153C28.2597 12.0153 28.8621 12.2648 29.3063 12.709C29.7505 13.1531 30 13.7555 30 14.3837C30 15.0118 29.7505 15.6142 29.3063 16.0584C28.8621 16.5026 28.2597 16.7521 27.6316 16.7521H2.36842C1.74028 16.7521 1.13786 16.5026 0.693695 16.0584C0.249529 15.6142 0 15.0118 0 14.3837C0 13.7555 0.249529 13.1531 0.693695 12.709C1.13786 12.2648 1.74028 12.0153 2.36842 12.0153H27.6316ZM27.6316 0.962631C28.2597 0.962631 28.8621 1.21216 29.3063 1.65633C29.7505 2.10049 30 2.70291 30 3.33105C30 3.9592 29.7505 4.56161 29.3063 5.00578C28.8621 5.44994 28.2597 5.69947 27.6316 5.69947H2.36842C1.74028 5.69947 1.13786 5.44994 0.693695 5.00578C0.249529 4.56161 0 3.9592 0 3.33105C0 2.70291 0.249529 2.10049 0.693695 1.65633C1.13786 1.21216 1.74028 0.962631 2.36842 0.962631H27.6316Z" fill="#0F1108"/>
</svg>
